<?xml version="1.0" encoding="UTF-8"?>
<svg version="1.1" xmlns="http://www.w3.org/2000/svg" width="1536" height="1024">
<path d="M0 0 C506.88 0 1013.76 0 1536 0 C1536 337.92 1536 675.84 1536 1024 C1029.12 1024 522.24 1024 0 1024 C0 686.08 0 348.16 0 0 Z " fill="#002240" transform="translate(0,0)"/>
<path d="M0 0 C25.12706075 -0.26652895 50.10103086 5.60200609 72 18 C72.99386719 18.55429687 73.98773438 19.10859375 75.01171875 19.6796875 C86.74209734 26.67440683 95.7156859 36.27715796 104 47 C105.33107758 48.66846877 106.66375877 50.33566382 108 52 C108.44988281 51.40574219 108.89976562 50.81148438 109.36328125 50.19921875 C118.52458601 38.39417073 128.56787362 29.1376523 141 21 C141.98871094 20.3503125 142.97742188 19.700625 143.99609375 19.03125 C158.30140733 10.18020117 175.14185512 5.34771147 191.5625 2.25 C192.53401001 2.05821167 192.53401001 2.05821167 193.52514648 1.86254883 C197.96877087 1.08347539 202.26878219 0.94439129 206.78100586 0.96777344 C208.52999428 0.9747525 208.52999428 0.9747525 210.3143158 0.98187256 C211.20059158 0.98785461 212.08686737 0.99383667 213 1 C213.04708391 9.28666206 213.08224393 17.57326497 213.10362434 25.86002922 C213.11390425 29.71109738 213.1277597 33.56207175 213.15087891 37.41308594 C213.4524441 89.05424019 211.13250512 137.65935506 173.47607422 176.47705078 C172.06738922 177.93047074 170.67580525 179.40040739 169.28515625 180.87109375 C162.38632765 188.01305287 154.92698942 194.06570682 147 200 C146.45537109 200.41604492 145.91074219 200.83208984 145.34960938 201.26074219 C134.17372507 209.78117151 120.56368139 220.04293069 107 224 C104.75170898 223.35668945 104.75170898 223.35668945 102.49609375 222.11328125 C101.67302734 221.66919922 100.84996094 221.22511719 100.00195312 220.76757812 C99.15568359 220.28740234 98.30941406 219.80722656 97.4375 219.3125 C96.16229492 218.62124023 96.16229492 218.62124023 94.86132812 217.91601562 C87.19966584 213.71562195 87.19966584 213.71562195 84 211 C84 210.34 84 209.68 84 209 C84.93457031 208.61070312 85.86914062 208.22140625 86.83203125 207.8203125 C124.31427661 191.96821416 163.87095797 168.14748736 180.17919922 129.09423828 C182.23497459 123.84901486 183.70547855 118.48105889 185 113 C185.20109375 112.20078125 185.4021875 111.4015625 185.609375 110.578125 C186.85313645 105.11311255 187.45282174 99.56430024 188.0625 94 C188.18165771 92.92552612 188.18165771 92.92552612 188.30322266 91.8293457 C189.89893563 76.23335097 190.21257915 60.5371715 190.5625 44.875 C190.60585773 43.02994174 190.64947632 41.18488959 190.69335938 39.33984375 C190.7985644 34.89329349 190.90029441 30.44667683 191 26 C188.49085723 26.60425647 185.98341774 27.2145067 183.4765625 27.828125 C182.77732666 27.99586426 182.07809082 28.16360352 181.35766602 28.33642578 C156.95995795 34.34071442 135.18156506 48.13356959 121.92724609 69.74951172 C117.2887031 77.67486839 113.60400354 86.02819785 109.92919922 94.43041992 C98.97500893 119.34999404 98.97500893 119.34999404 89 126 C89.48924473 121.82954494 90.03007428 117.69112904 90.75390625 113.5546875 C94.34000548 93.0119599 94.39733709 73.67930113 82 56 C69.67837796 40.3183456 51.53345855 31.90362248 32.53515625 27.32421875 C31.61480591 27.0984314 30.69445557 26.87264404 29.74621582 26.64001465 C27.49845311 26.0891997 25.24975004 25.54262968 23 25 C23.1952765 32.14819964 23.40359506 39.29590765 23.62686634 46.44329071 C23.73026103 49.76514121 23.82851889 53.08694399 23.91918945 56.40917969 C25.0377053 97.10772865 28.84202091 135.05774322 59 165 C61.93701977 167.7457522 64.92074541 170.41494676 68 173 C93.69633991 163.51067521 118.47524271 139.00843717 135 118 C135.84573578 116.95652974 136.69210718 115.91357439 137.5390625 114.87109375 C143.32979891 107.65068062 147.89499843 100.30515218 152 92 C152.33 92 152.66 92 153 92 C154.59039067 114.26546937 141.54877159 137.25990703 127.53759766 153.71777344 C113.72076933 169.58334987 97.45719007 181.09912729 79.6875 192.1875 C78.78612305 192.75235107 77.88474609 193.31720215 76.95605469 193.89916992 C76.10817383 194.42099854 75.26029297 194.94282715 74.38671875 195.48046875 C73.63608154 195.94348389 72.88544434 196.40649902 72.11206055 196.88354492 C69.97937662 198.01090171 68.4057934 198.77692444 66 199 C64.17578125 198.00292969 64.17578125 198.00292969 62.3125 196.421875 C61.61979004 195.8436499 60.92708008 195.2654248 60.21337891 194.66967773 C59.48296387 194.03618408 58.75254883 193.40269043 58 192.75 C56.86377197 191.78525757 56.86377197 191.78525757 55.70458984 190.80102539 C53.45675077 188.88181915 51.22671599 186.94364152 49 185 C48.40993164 184.49259277 47.81986328 183.98518555 47.21191406 183.46240234 C14.62557915 155.37175645 3.59146999 119.1011373 0.40795898 77.30932617 C-0.47732883 63.53275814 -0.21589739 49.70029295 -0.1373291 35.90270996 C-0.11647587 31.83880767 -0.10765307 27.77487842 -0.09765625 23.7109375 C-0.07652206 15.80722052 -0.04261629 7.90363029 0 0 Z " fill="#FBC55E" transform="translate(298,404)"/>
<path d="M0 0 C7.85517311 6.41054357 12.08315286 14.30456312 13.69140625 24.31640625 C13.96139726 29.00215361 14.01092322 33.68209452 14.02693176 38.3740921 C14.0352906 40.74513925 14.05585451 43.11581398 14.07946777 45.48675537 C14.13558837 51.36828698 14.17112596 57.2499086 14.20709229 63.1315918 C14.23835116 68.11827329 14.27752693 73.1047693 14.3273468 78.09130096 C14.34737714 80.42451985 14.35572348 82.75759455 14.36364746 85.09088135 C14.37661868 86.52055387 14.39013882 87.95022155 14.40429688 89.37988281 C14.41523376 91.24897308 14.41523376 91.24897308 14.4263916 93.15582275 C14.67772266 96.1532148 15.01605258 97.85122188 16.69140625 100.31640625 C19.95312073 101.94726349 23.47936629 101.16609695 27.0625 100.9609375 C29.69140625 101.31640625 29.69140625 101.31640625 31.5390625 103.328125 C31.91933594 103.98425781 32.29960938 104.64039063 32.69140625 105.31640625 C29.85877217 111.85542224 23.83287773 115.08301992 17.44140625 117.69140625 C10.41790994 120.0260594 3.41359504 120.48820643 -3.68359375 118.25390625 C-8.29586028 114.84961429 -12.06564101 110.63812902 -14.30859375 105.31640625 C-14.30859375 104.32640625 -14.30859375 103.33640625 -14.30859375 102.31640625 C-14.9634375 102.89648438 -15.61828125 103.4765625 -16.29296875 104.07421875 C-30.01360235 115.8181509 -43.22738732 120.38479796 -61.16552734 119.51171875 C-65.51201737 119.11559298 -68.73110066 117.72666643 -72.30859375 115.31640625 C-72.99953125 114.92710937 -73.69046875 114.5378125 -74.40234375 114.13671875 C-80.78956063 110.10895885 -84.13461615 104.46060075 -86.30859375 97.31640625 C-87.91542174 87.94097346 -87.06887494 79.18494066 -82.1875 70.89453125 C-71.49241501 56.21936266 -52.89656586 50.802226 -35.80859375 47.56640625 C-35.15721436 47.4384668 -34.50583496 47.31052734 -33.8347168 47.17871094 C-27.34790482 46.05139812 -20.87406481 46.20303472 -14.30859375 46.31640625 C-14.33165267 42.19021594 -14.40931553 38.06670955 -14.49609375 33.94140625 C-14.50189453 32.78511719 -14.50769531 31.62882812 -14.51367188 30.4375 C-14.72489456 22.12940768 -15.98578558 14.66084348 -22.06518555 8.55102539 C-27.04077045 4.52647458 -32.79887993 4.65179798 -38.95703125 4.90234375 C-43.32728397 5.44225842 -47.05268474 6.237952 -50.30859375 9.31640625 C-53.60208897 14.27827615 -55.16681637 18.77723426 -56.37109375 24.56640625 C-58.16515793 33.15284444 -58.16515793 33.15284444 -61.30859375 35.31640625 C-65.96836524 36.86966341 -69.81011882 36.78651603 -74.49609375 35.31640625 C-78.32724745 32.59203028 -80.04236787 29.83077678 -81.30859375 25.31640625 C-81.75120996 19.11977925 -79.90144672 13.33846041 -76.30859375 8.31640625 C-58.44722659 -11.29464586 -21.68461934 -15.81399481 0 0 Z " fill="#FAF3EC" transform="translate(1150.30859375,468.68359375)"/>
<path d="M0 0 C23.43 0 46.86 0 71 0 C71 2.64 71 5.28 71 8 C70.32453125 8.15855469 69.6490625 8.31710937 68.953125 8.48046875 C64.78266884 9.57129616 61.68419615 10.41354615 58.375 13.25 C56.13137799 17.73724402 56.66797646 21.72219081 57.90917969 26.49902344 C58.32586914 27.69043945 58.74255859 28.88185547 59.171875 30.109375 C59.39808533 30.76033142 59.62429565 31.41128784 59.85736084 32.08197021 C62.13166943 38.54642489 64.66138584 44.90580664 67.25 51.25 C68.3030589 53.85324867 69.35253521 56.45793916 70.40234375 59.0625 C70.68216599 59.75555237 70.96198822 60.44860474 71.25028992 61.16265869 C74.77536899 69.90255656 78.23667456 78.66772652 81.69934082 87.43249512 C82.78158608 90.17175412 83.86485305 92.91060731 84.94824219 95.64941406 C89.33716407 106.75149148 93.68558594 117.86876089 98 129 C102.14760399 119.37271482 105.78549962 109.59501579 109.375 99.75 C110.60741392 96.38079007 111.84222788 93.01246491 113.078125 89.64453125 C113.39544586 88.77953506 113.71276672 87.91453888 114.03970337 87.02333069 C116.36565699 80.6953011 118.72831736 74.38170248 121.109375 68.07421875 C121.44655548 67.18012299 121.78373596 66.28602722 122.13113403 65.36483765 C123.44667271 61.87788057 124.76257816 58.39109157 126.08660889 54.90734863 C134.59305469 35.49428926 134.59305469 35.49428926 136 15 C133.36684047 10.83790913 130.8126382 9.76718526 126.1875 8.6875 C124.79482492 8.43986283 123.39968739 8.20431167 122 8 C122 5.36 122 2.72 122 0 C140.15 0 158.3 0 177 0 C177 2.64 177 5.28 177 8 C176.34773437 8.09796875 175.69546875 8.1959375 175.0234375 8.296875 C169.51885771 9.23866151 165.20130838 10.09180615 161 14 C157.29905731 20.3278794 154.61896861 27.17132041 152.0234375 34.0078125 C151.66060165 34.9503891 151.29776581 35.8929657 150.92393494 36.86410522 C150.14379423 38.8917588 149.36579219 40.92023632 148.5897522 42.94946289 C146.48871892 48.44186631 144.37063711 53.92769387 142.25390625 59.4140625 C141.81860092 60.54334167 141.38329559 61.67262085 140.93479919 62.83612061 C136.46432949 74.41870356 131.89602693 85.96178996 127.3125 97.5 C119.52790289 117.10720884 111.82414455 136.74484023 104.18106079 156.40763855 C102.8048396 159.94587916 101.41002276 163.4749431 100 167 C92.74 167 85.48 167 78 167 C70.0850446 148.33757979 62.19312155 129.67547809 54.71948242 110.83105469 C49.48930355 97.6610757 44.11221679 84.55181386 38.72998047 71.44335938 C35.17542914 62.78276364 31.63466119 54.11806536 28.16796875 45.421875 C27.58012791 43.95290974 26.99215972 42.48399544 26.40405273 41.01513672 C25.33849536 38.35357825 24.28345751 35.6882024 23.23461914 33.02001953 C18.49547056 19.87807134 18.49547056 19.87807134 8.9375 10.4375 C6.02034875 9.24488346 3.13875845 8.39234481 0 8 C0 5.36 0 2.72 0 0 Z " fill="#FAF4EB" transform="translate(559,418)"/>
<path d="M0 0 C12.40512911 9.01783346 18.56540849 20.18645875 21.25 35.25 C21.25 40.86 21.25 46.47 21.25 52.25 C-4.82 52.25 -30.89 52.25 -57.75 52.25 C-54.48481136 76.76458229 -54.48481136 76.76458229 -39.76171875 94.9296875 C-29.77441562 101.4844612 -17.74870197 101.78437075 -6.30859375 99.58984375 C2.6120658 96.95807829 8.83124361 91.78337704 15.25 85.25 C18.25 86.75 18.25 86.75 21.25 88.25 C19.76671007 97.87452898 12.69060508 104.53667824 5.25 110.25 C-7.31628569 119.31866951 -22.4501216 122.4281902 -37.75 121.25 C-52.88158941 118.52007408 -65.89634943 112.18106781 -75.56640625 99.953125 C-77.07022235 97.76712666 -78.43214771 95.55207109 -79.75 93.25 C-80.11609375 92.6621875 -80.4821875 92.074375 -80.859375 91.46875 C-89.89970742 75.61339775 -90.37291217 53.42018339 -86.1875 36.0625 C-80.83201151 19.47172098 -72.44076626 6.54778919 -56.75 -1.75 C-39.39377102 -9.8479276 -16.49811698 -10.13139399 0 0 Z " fill="#FAF3EB" transform="translate(802.75,467.75)"/>
<path d="M0 0 C19.8 0 39.6 0 60 0 C60 2.64 60 5.28 60 8 C59.37351562 8.18175781 58.74703125 8.36351562 58.1015625 8.55078125 C57.28429687 8.80214844 56.46703125 9.05351562 55.625 9.3125 C54.40683594 9.67794922 54.40683594 9.67794922 53.1640625 10.05078125 C50.66815371 10.91368185 50.66815371 10.91368185 49 14 C49.17045418 21.77116109 51.70843869 28.17930399 54.625 35.3125 C55.09921387 36.49642334 55.57342773 37.68034668 56.06201172 38.90014648 C60.96295984 51.10129774 66.04580457 63.2312677 71.13525391 75.35473633 C71.6090448 76.48404572 71.6090448 76.48404572 72.09240723 77.63616943 C72.68745481 79.05340472 73.28350942 80.47021776 73.8807373 81.88653564 C75.00904504 84.5727173 76.07818239 87.23454716 77 90 C81.55212636 79.35001416 85.74272539 68.55750472 89.95776367 57.77099609 C91.19304126 54.61082396 92.43135892 51.45185449 93.66992188 48.29296875 C94.46111958 46.27090457 95.25214148 44.24877159 96.04296875 42.2265625 C96.41068893 41.28898102 96.77840912 40.35139954 97.15727234 39.38540649 C101.83670235 27.57135559 101.83670235 27.57135559 102 15 C98.79800008 10.24551526 95.35798194 9.15564316 90 8 C90 5.36 90 2.72 90 0 C105.51 0 121.02 0 137 0 C137 2.64 137 5.28 137 8 C136.34773437 8.1959375 135.69546875 8.391875 135.0234375 8.59375 C134.14945313 8.8928125 133.27546875 9.191875 132.375 9.5 C131.51648438 9.7784375 130.65796875 10.056875 129.7734375 10.34375 C123.33956391 14.18595057 120.01752008 21.31902705 117.125 28 C116.75971191 28.82701416 116.39442383 29.65402832 116.01806641 30.50610352 C110.05503763 44.22869932 104.66243013 58.20230456 99.14256287 72.10707092 C94.03044071 84.97324247 88.8074355 97.79456207 83.58912659 110.61793518 C81.91182414 114.74339374 80.24621882 118.87326316 78.59416199 123.00889587 C77.84457488 124.88461804 77.09187762 126.75909637 76.33911133 128.63354492 C75.44555399 130.85942255 74.55684962 133.08725884 73.67456055 135.31762695 C67.57211696 150.46474171 60.24765288 163.6708761 45 171 C38.18912463 173.82715581 29.69211647 174.3213 22.55859375 172.3125 C17.39283255 169.95997118 13.4202203 166.38667917 11.1875 161.0625 C11.125625 160.381875 11.06375 159.70125 11 159 C10.896875 157.906875 10.79375 156.81375 10.6875 155.6875 C11.08627249 150.98198461 12.33931299 148.87700107 15 145 C18.12003358 142.91997761 19.98238679 142.47684816 23.6953125 142.53125 C26.59989334 143.1220122 28.46992872 144.37032676 30.9375 146 C35.09400878 148.69438818 38.01042168 149.85570133 42.9765625 149.4375 C49.68205352 147.9876641 52.9482342 142.85555215 56.515625 137.44921875 C60.21515672 131.34499141 60.28070633 126.82850642 59 120 C58.01952368 116.9227627 56.74546262 114.01814629 55.4140625 111.078125 C55.04520432 110.23600464 54.67634613 109.39388428 54.29631042 108.52624512 C53.08344086 105.76255122 51.8541555 103.0064841 50.625 100.25 C48.8869065 96.30428361 47.1569125 92.3550249 45.42578125 88.40625 C44.97976059 87.39230164 44.53373993 86.37835327 44.07420349 85.3336792 C40.91359278 78.13532743 37.82971064 70.907668 34.79296875 63.65625 C34.16243591 62.151763 34.16243591 62.151763 33.51916504 60.61688232 C31.88880538 56.72276708 30.26030646 52.82791697 28.64068604 48.92932129 C24.87860249 39.878244 21.07391477 30.85074064 16.82421875 22.015625 C16.52683304 21.373974 16.22944733 20.732323 15.92304993 20.07122803 C13.41875229 15.01074126 10.12475039 11.36635764 4.8828125 9.07421875 C4.30273438 8.94660156 3.72265625 8.81898438 3.125 8.6875 C2.09375 8.460625 1.0625 8.23375 0 8 C0 5.36 0 2.72 0 0 Z " fill="#F9F3EB" transform="translate(827,464)"/>
<path d="M0 0 C0.495 11.385 0.495 11.385 1 23 C2.7015625 20.525 2.7015625 20.525 4.4375 18 C10.2523958 10.04546824 17.1116753 2.46824849 27 0 C34.19442979 -0.9291699 40.51776645 -0.97708778 46.4765625 3.5234375 C50.12744992 7.06198992 51.16386656 10.5580142 51.4375 15.5 C51.25527073 20.01776736 50.08879339 22.59440728 47 26 C42.41687383 29.41487832 38.76499766 30.76004668 33.015625 30.53515625 C31 30 31 30 28.5625 27.0625 C27.7890625 25.5465625 27.7890625 25.5465625 27 24 C23.4389131 22.21945655 19.75877224 23.02728258 16 24 C10.80308665 26.8296361 6.17785367 30.98651359 3 36 C2.26469876 39.46321803 2.26469876 39.46321803 2.38476562 43.21118164 C2.37921661 43.90628342 2.3736676 44.60138519 2.36795044 45.31755066 C2.35620673 47.59913613 2.38036919 49.87871188 2.40625 52.16015625 C2.40796245 53.75385955 2.40789406 55.34756568 2.40612793 56.94126892 C2.40777809 60.2743541 2.4264208 63.60676417 2.45800781 66.93969727 C2.49771724 71.20581333 2.50204753 75.47104742 2.49454498 79.73731327 C2.49147169 83.02567077 2.50360797 86.31383103 2.52067566 89.60214043 C2.52769165 91.17495931 2.53083189 92.74780054 2.52998352 94.32063484 C2.53178686 96.52023661 2.55321132 98.71879265 2.58007812 100.91821289 C2.58849731 102.16808487 2.5969165 103.41795685 2.60559082 104.70570374 C3.03344471 108.27934636 3.83702638 110.15206201 6 113 C10.22737451 115.69014742 14.04664674 116.50466467 19 117 C19 119.64 19 122.28 19 125 C-1.13 125 -21.26 125 -42 125 C-42 122.36 -42 119.72 -42 117 C-41.31292969 116.82984375 -40.62585938 116.6596875 -39.91796875 116.484375 C-39.01691406 116.24203125 -38.11585938 115.9996875 -37.1875 115.75 C-36.29417969 115.51796875 -35.40085937 115.2859375 -34.48046875 115.046875 C-31.57143765 113.81912644 -30.60017169 112.68546164 -29 110 C-27.80491393 106.41474179 -27.8445991 103.14298153 -27.83886719 99.41088867 C-27.83390228 98.6398027 -27.82893738 97.86871674 -27.82382202 97.07426453 C-27.80921193 94.52215686 -27.80240007 91.97011137 -27.796875 89.41796875 C-27.79112227 87.64301044 -27.78536455 85.86805215 -27.77960205 84.09309387 C-27.76909512 80.36992097 -27.76325055 76.64676963 -27.75976562 72.92358398 C-27.75428379 68.15875272 -27.73026116 63.39420763 -27.70179367 58.62946606 C-27.68314551 54.96197178 -27.67796052 51.29454611 -27.67642975 47.62700844 C-27.67340724 45.87077585 -27.66539226 44.11454436 -27.65224457 42.35835838 C-27.63513955 39.8977842 -27.63707507 37.43790487 -27.64355469 34.97729492 C-27.6343399 34.25552063 -27.62512512 33.53374634 -27.6156311 32.7901001 C-27.65391122 28.13636668 -28.54075069 24.95073544 -31 21 C-32.97918388 19.67698578 -32.97918388 19.67698578 -35.1875 19.125 C-36.445625 18.75375 -37.70375 18.3825 -39 18 C-39 15.36 -39 12.72 -39 10 C-33.76812001 8.57264049 -28.53536333 7.14855866 -23.30175781 5.72753906 C-21.52058678 5.24341924 -19.73966091 4.75839647 -17.95898438 4.27246094 C-15.40297982 3.57511003 -12.84611805 2.88098572 -10.2890625 2.1875 C-9.49005524 1.96876221 -8.69104797 1.75002441 -7.86782837 1.5246582 C-2.22774341 0 -2.22774341 0 0 0 Z " fill="#FBF4EC" transform="translate(1009,460)"/>
<path d="M0 0 C1.75570313 0.01353516 1.75570313 0.01353516 3.546875 0.02734375 C4.43890625 0.03894531 5.3309375 0.05054688 6.25 0.0625 C6.33777806 4.22903186 6.39065272 8.39532276 6.4375 12.5625 C6.46263672 13.73554687 6.48777344 14.90859375 6.51367188 16.1171875 C6.57804165 23.75573465 6.4710622 30.10619534 1.453125 36.26953125 C-6.03241931 42.42264867 -11.9338599 44.66092899 -21.71875 44.4140625 C-27.07087562 43.79332628 -29.57699565 41.36231564 -33.0625 37.5 C-36.71855863 32.21902642 -36.43471418 26.25640877 -35.75 20.0625 C-34.57993247 16.89859542 -32.96785296 14.5866549 -30.75 12.0625 C-30.04037109 11.24845703 -30.04037109 11.24845703 -29.31640625 10.41796875 C-21.84433301 3.0576971 -10.23537453 -0.10235375 0 0 Z " fill="#01203C" transform="translate(1129.75,524.9375)"/>
<path d="M0 0 C7.99418379 6.04438286 11.00939135 13.46621394 13.3125 23.0625 C13.65548488 27.00682613 13.5625 30.97828957 13.5625 34.9375 C-2.6075 34.9375 -18.7775 34.9375 -35.4375 34.9375 C-31.99487705 10.83913934 -31.99487705 10.83913934 -22.9375 2.6875 C-15.97476831 -2.18641219 -8.12359434 -2.51092916 0 0 Z " fill="#06243F" transform="translate(780.4375,473.0625)"/>
<path d="M0 0 C7.34881521 0 13.61697286 0.17985111 20.6875 1.5 C21.90083008 1.71462891 21.90083008 1.71462891 23.13867188 1.93359375 C25.09395354 2.28068517 27.04722168 2.63909048 29 3 C29 3.33 29 3.66 29 4 C20.42 4 11.84 4 3 4 C2.67 21.16 2.34 38.32 2 56 C1.01 56.495 1.01 56.495 0 57 C0 38.19 0 19.38 0 0 Z " fill="#FADB64" transform="translate(298,404)"/>
<path d="M0 0 C19.8 0 39.6 0 60 0 C60 2.64 60 5.28 60 8 C58.35 8 56.7 8 55 8 C56.32 7.67 57.64 7.34 59 7 C59 5.35 59 3.7 59 2 C40.19 2 21.38 2 2 2 C2 3.65 2 5.3 2 7 C2.99 7.33 3.98 7.66 5 8 C3.35 8 1.7 8 0 8 C0 5.36 0 2.72 0 0 Z " fill="#D6D9DD" transform="translate(827,464)"/>
<path d="M0 0 C6.96003447 -0.02526838 13.9200572 -0.04283222 20.88012695 -0.05493164 C23.24992312 -0.05997341 25.61971615 -0.06680665 27.98950195 -0.07543945 C31.38754039 -0.0875119 34.78553785 -0.09322971 38.18359375 -0.09765625 C39.25024765 -0.10281754 40.31690155 -0.10797882 41.4158783 -0.11329651 C42.88729027 -0.11340981 42.88729027 -0.11340981 44.38842773 -0.11352539 C45.25668686 -0.115746 46.12494598 -0.11796661 47.01951599 -0.12025452 C49 0 49 0 50 1 C50.45459858 3.65463121 50.70243238 6.32189138 51 9 C48.24203183 10.83864545 46.78713016 11.36481437 43.6875 12.125 C38.15684614 13.87862195 36.0008784 17.26224956 33 22 C32.0100671 23.34082461 31.01274656 24.67632248 30 26 C30.33729288 20.60331389 33.4280174 16.81915104 37 13 C40.60626883 10.20980493 43.33732636 9 48 9 C48 6.36 48 3.72 48 1 C32.16 1 16.32 1 0 1 C0 0.67 0 0.34 0 0 Z M59 6 C57.35 6.33 55.7 6.66 54 7 C53.67 9.64 53.34 12.28 53 15 C52.67 15 52.34 15 52 15 C51.67 12.36 51.34 9.72 51 7 C55.625 4.875 55.625 4.875 59 6 Z " fill="#030712" transform="translate(916,463)"/>
<path d="M0 0 C2.36084924 2.90615632 3.82247242 5.6514577 5.17651367 9.13574219 C5.57670212 10.15649841 5.97689056 11.17725464 6.38920593 12.22894287 C6.81119766 13.32386047 7.23318939 14.41877808 7.66796875 15.546875 C8.10764481 16.6732135 8.54732086 17.799552 9.00032043 18.96002197 C10.40188976 22.55443822 11.79478906 26.15214339 13.1875 29.75 C14.1368003 32.18902381 15.08666337 34.62782867 16.03710938 37.06640625 C18.36460668 43.04174641 20.68499645 49.01980915 23 55 C23.99 53.02 24.98 51.04 26 49 C27.15957207 52.47871621 26.77456651 53.34219645 25.5625 56.6875 C25.13130859 57.89986328 25.13130859 57.89986328 24.69140625 59.13671875 C24.46324219 59.75160156 24.23507812 60.36648438 24 61 C21.86888003 58.86888003 21.2603268 57.48628415 20.18408203 54.70898438 C19.83677032 53.82045776 19.48945862 52.93193115 19.13162231 52.01647949 C18.76076508 51.05197876 18.38990784 50.08747803 18.0078125 49.09375 C17.62060028 48.09927856 17.23338806 47.10480713 16.83444214 46.0802002 C15.59299562 42.88870314 14.35884502 39.69444255 13.125 36.5 C11.89665425 33.33477745 10.66684487 30.17012617 9.4369812 27.00549316 C8.67216519 25.03584302 7.90852333 23.06573638 7.14627075 21.09509277 C6.61584671 19.72447693 6.61584671 19.72447693 6.07470703 18.32617188 C5.5637851 17.0034729 5.5637851 17.0034729 5.0425415 15.65405273 C4.32588873 13.82963208 3.5926219 12.01167786 2.84564209 10.19946289 C2.29532318 8.86419556 2.29532318 8.86419556 1.73388672 7.50195312 C1.40105682 6.70760864 1.06822693 5.91326416 0.72531128 5.09484863 C0 3 0 3 0 0 Z " fill="#0C1120" transform="translate(634,488)"/>
<path d="M0 0 C23.1 0 46.2 0 70 0 C70 2.64 70 5.28 70 8 C68.35 8 66.7 8 65 8 C65.33 7.34 65.66 6.68 66 6 C66.66 6 67.32 6 68 6 C67.505 4.02 67.505 4.02 67 2 C44.89 2 22.78 2 0 2 C0 1.34 0 0.68 0 0 Z " fill="#FDFDFC" transform="translate(560,418)"/>
<path d="M0 0 C2.31 0 4.62 0 7 0 C6.360625 0.226875 5.72125 0.45375 5.0625 0.6875 C4.381875 1.120625 3.70125 1.55375 3 2 C2.67 3.65 2.34 5.3 2 7 C20.81 7 39.62 7 59 7 C59 5.68 59 4.36 59 3 C59.66 3 60.32 3 61 3 C61 4.65 61 6.3 61 8 C40.87 8 20.74 8 0 8 C0 5.36 0 2.72 0 0 Z " fill="#FDFDFC" transform="translate(967,577)"/>
<path d="M0 0 C0.33 0 0.66 0 1 0 C1.37369729 7.47394574 0.04061541 13.82140651 -2 21 C-2.33 21 -2.66 21 -3 21 C-3 19.35 -3 17.7 -3 16 C-4.175625 16.5259375 -4.175625 16.5259375 -5.375 17.0625 C-6.674375 17.5265625 -6.674375 17.5265625 -8 18 C-8.66 17.67 -9.32 17.34 -10 17 C-9.52949219 16.27554688 -9.05898438 15.55109375 -8.57421875 14.8046875 C-3.93179183 7.59989702 -3.93179183 7.59989702 0 0 Z " fill="#EBC562" transform="translate(450,496)"/>
<path d="M0 0 C6.39651259 -0.15366997 12.27698902 0.35153626 18.5625 1.5 C19.38041016 1.64308594 20.19832031 1.78617187 21.04101562 1.93359375 C23.02854504 2.28228312 25.01445896 2.64016085 27 3 C27 3.33 27 3.66 27 4 C18.09 4 9.18 4 0 4 C0 2.68 0 1.36 0 0 Z " fill="#F1D064" transform="translate(300,404)"/>
<path d="M0 0 C0.66 0.33 1.32 0.66 2 1 C2 9.25 2 17.5 2 26 C-0.31 26 -2.62 26 -5 26 C-5 25.67 -5 25.34 -5 25 C-3.35 24.67 -1.7 24.34 0 24 C-0.08378906 22.68644531 -0.16757813 21.37289063 -0.25390625 20.01953125 C-0.35710748 18.28387415 -0.45995342 16.5481959 -0.5625 14.8125 C-0.61857422 13.94818359 -0.67464844 13.08386719 -0.73242188 12.19335938 C-0.9761489 7.95250921 -1.15770796 4.14202181 0 0 Z " fill="#031122" transform="translate(1134,488)"/>
<path d="M0 0 C0.33 0 0.66 0 1 0 C1.3125 2.25 1.3125 2.25 1 5 C-1.1875 7 -1.1875 7 -4 9 C-7.33390093 12.09576515 -9.82706572 14.99722633 -12 19 C-12.99 18.67 -13.98 18.34 -15 18 C-4.17112299 4.69251337 -4.17112299 4.69251337 0 0 Z " fill="#F2CE64" transform="translate(439,515)"/>
<path d="M0 0 C1 3 1 3 0.27490234 4.98950195 C-0.11745605 5.73159912 -0.50981445 6.47369629 -0.9140625 7.23828125 C-1.34589844 8.05876953 -1.77773438 8.87925781 -2.22265625 9.72460938 C-2.68542969 10.57861328 -3.14820313 11.43261719 -3.625 12.3125 C-4.06457031 13.15490234 -4.50414062 13.99730469 -4.95703125 14.86523438 C-7.55035413 19.7286654 -10.24140206 23.9578587 -14 28 C-14.33 28 -14.66 28 -15 28 C-15 26.02 -15 24.04 -15 22 C-14.01 22 -13.02 22 -12 22 C-10.49584771 20.18591337 -10.49584771 20.18591337 -9.1875 17.75 C-8.67316406 16.85023438 -8.15882813 15.95046875 -7.62890625 15.0234375 C-4.96315968 10.07550502 -2.45054739 5.05751269 0 0 Z " fill="#F4DF68" transform="translate(407,496)"/>
<path d="M0 0 C0.66 1.32 1.32 2.64 2 4 C-0.625 7.875 -0.625 7.875 -4 9 C-8.56187786 9.25343766 -11.87151072 9.00169177 -16 7 C-16 6.34 -16 5.68 -16 5 C-11.05 5 -6.1 5 -1 5 C-0.67 3.35 -0.34 1.7 0 0 Z " fill="#EBEBEA" transform="translate(1090,496)"/>
<path d="M0 0 C3.17175425 3.43535849 3.45766505 6.15330091 3.6875 10.75 C3.75324219 11.92046875 3.81898438 13.0909375 3.88671875 14.296875 C3.92410156 15.18890625 3.96148437 16.0809375 4 17 C3.01 16.67 2.02 16.34 1 16 C-0.12862175 10.63904667 -0.09688221 5.44693314 0 0 Z " fill="#EECB62" transform="translate(300,488)"/>
<path d="M0 0 C1.32810933 3.69909647 0.6670918 6.31590956 -0.3125 10.0625 C-0.70888672 11.62677734 -0.70888672 11.62677734 -1.11328125 13.22265625 C-2 16 -2 16 -4 19 C-4.66 18.67 -5.32 18.34 -6 18 C-4.23536928 11.89262558 -2.30442525 5.92566493 0 0 Z " fill="#111A3A" transform="translate(504,525)"/>
<path d="M0 0 C2.31 0.33 4.62 0.66 7 1 C7 1.33 7 1.66 7 2 C5.35 2 3.7 2 2 2 C2 6.29 2 10.58 2 15 C1.01 15.495 1.01 15.495 0 16 C0 10.72 0 5.44 0 0 Z " fill="#030936" transform="translate(321,429)"/>
<path d="M0 0 C0 3 0 3 -1.75 4.97265625 C-2.4925 5.66230469 -3.235 6.35195313 -4 7.0625 C-5.36847481 8.33831766 -6.71055602 9.64435689 -8 11 C-8 11.66 -8 12.32 -8 13 C-10.66666667 14.33333333 -13.33333333 15.66666667 -16 17 C-14.47048225 13.21916961 -12.18109791 11.14801362 -9.125 8.5 C-5.975585 5.75483827 -2.92073411 2.98865816 0 0 Z " fill="#020A34" transform="translate(422,561)"/>
<path d="M0 0 C0.33 0.66 0.66 1.32 1 2 C0.10796875 2.06058594 -0.7840625 2.12117188 -1.703125 2.18359375 C-3.45882813 2.30927734 -3.45882813 2.30927734 -5.25 2.4375 C-6.99023438 2.55931641 -6.99023438 2.55931641 -8.765625 2.68359375 C-11.30977376 2.93247787 -13.55953248 3.28114942 -16 4 C-16.33 3.01 -16.66 2.02 -17 1 C-11.33357449 -0.22517308 -5.76291482 -0.09228867 0 0 Z " fill="#E6E9EA" transform="translate(1120,471)"/>
<path d="M0 0 C0.36738281 0.49113281 0.73476562 0.98226563 1.11328125 1.48828125 C3.80832276 3.64766233 5.78709215 3.29719058 9.1875 3.1875 C10.81751953 3.14689453 10.81751953 3.14689453 12.48046875 3.10546875 C13.31191406 3.07066406 14.14335938 3.03585937 15 3 C12.61988848 6.83716698 12.61988848 6.83716698 9.84375 7.56640625 C7.46196167 7.5624366 5.32885683 7.51607814 3 7 C0.89638304 4.5776532 0 3.21754366 0 0 Z " fill="#E8E8E5" transform="translate(1037,483)"/>
<path d="M0 0 C0.33 0 0.66 0 1 0 C1.08071788 2.79224073 1.14035408 5.58216566 1.1875 8.375 C1.21263672 9.1690625 1.23777344 9.963125 1.26367188 10.78125 C1.29004405 12.85586148 1.15486462 14.93100865 1 17 C0.01 17.66 -0.98 18.32 -2 19 C-2.05451714 16.95863605 -2.09302485 14.91684144 -2.125 12.875 C-2.14820313 11.73804688 -2.17140625 10.60109375 -2.1953125 9.4296875 C-1.99672109 5.94242233 -1.2524801 3.2446138 0 0 Z " fill="#DAAF5B" transform="translate(300,455)"/>
<path d="M0 0 C1.32 0.33 2.64 0.66 4 1 C4.625 3.3125 4.625 3.3125 5 6 C4.01 7.485 4.01 7.485 3 9 C3 7.35 3 5.7 3 4 C1.824375 4.5259375 1.824375 4.5259375 0.625 5.0625 C-0.674375 5.5265625 -0.674375 5.5265625 -2 6 C-2.66 5.67 -3.32 5.34 -4 5 C-2.68 3.35 -1.36 1.7 0 0 Z " fill="#F9D764" transform="translate(444,508)"/>
<path d="M0 0 C0.53625 0.2475 1.0725 0.495 1.625 0.75 C0.903125 0.976875 0.18125 1.20375 -0.5625 1.4375 C-3.91152223 3.00037704 -5.84747546 5.08585251 -8.375 7.75 C-9.365 8.245 -9.365 8.245 -10.375 8.75 C-9.37684314 5.15663529 -8.42674542 3.79274621 -5.5 1.375 C-2.375 -0.25 -2.375 -0.25 0 0 Z " fill="#061122" transform="translate(1107.375,474.25)"/>
<path d="M0 0 C1.24451915 3.59527755 0.70603283 6.31293967 0 10 C0 10.99 0 11.98 0 13 C-0.99 13.66 -1.98 14.32 -3 15 C-2.44854729 9.76119922 -1.57077907 5.02649303 0 0 Z " fill="#F1E26C" transform="translate(390,515)"/>
<path d="M0 0 C3.48763975 1.16254658 4.06608373 1.97300062 6 5 C8.17821782 9.46534653 8.17821782 9.46534653 7 13 C5.83072457 11.02237345 4.66464427 9.04285742 3.5 7.0625 C2.8503125 5.96035156 2.200625 4.85820313 1.53125 3.72265625 C0 1 0 1 0 0 Z " fill="#E3D166" transform="translate(314,548)"/>
<path d="M0 0 C0.33 0 0.66 0 1 0 C1.05447047 1.41623216 1.09300508 2.83308191 1.125 4.25 C1.14820313 5.03890625 1.17140625 5.8278125 1.1953125 6.640625 C0.9828378 9.20731941 0.28654105 10.7916067 -1 13 C-1.2236337 11.58566794 -1.42826476 10.16832382 -1.625 8.75 C-1.74101562 7.96109375 -1.85703125 7.1721875 -1.9765625 6.359375 C-2.00319395 3.67847541 -1.36592084 2.27305911 0 0 Z " fill="#F3E06A" transform="translate(450,496)"/>
<path d="M0 0 C2.87255066 2.42195448 3.70838919 4.59742703 4.6875 8.1875 C4.93886719 9.08855469 5.19023438 9.98960937 5.44921875 10.91796875 C5.63097656 11.60503906 5.81273437 12.29210937 6 13 C5.34 13 4.68 13 4 13 C3.32404685 11.58774074 2.65959941 10.16997095 2 8.75 C1.62875 7.96109375 1.2575 7.1721875 0.875 6.359375 C0 4 0 4 0 0 Z " fill="#0F1929" transform="translate(584,457)"/>
<path d="M0 0 C1.13643966 3.40931897 0.86747764 4.00335456 -0.4375 7.1875 C-0.72496094 7.90292969 -1.01242187 8.61835937 -1.30859375 9.35546875 C-1.53675781 9.89816406 -1.76492188 10.44085937 -2 11 C-2.66 10.67 -3.32 10.34 -4 10 C-4.625 6.9375 -4.625 6.9375 -5 4 C-4.34 4.66 -3.68 5.32 -3 6 C-2.01 4.02 -1.02 2.04 0 0 Z " fill="#0A0F1C" transform="translate(907,544)"/>
<path d="M0 0 C0 3 0 3 -1.375 4.4375 C-1.91125 4.953125 -2.4475 5.46875 -3 6 C-4.17574711 8.09989652 -4.17574711 8.09989652 -5 10 C-5.99 9.67 -6.98 9.34 -8 9 C-6.85459775 7.68712379 -5.70866567 6.37470979 -4.5625 5.0625 C-3.92441406 4.33160156 -3.28632813 3.60070312 -2.62890625 2.84765625 C-1.77458541 1.87860647 -0.91348825 0.91348825 0 0 Z " fill="#F6DF67" transform="translate(432,524)"/>
<path d="M0 0 C2 2 2 2 2 6 C3.65 6.33 5.3 6.66 7 7 C7 7.33 7 7.66 7 8 C4.69 8 2.38 8 0 8 C0 5.36 0 2.72 0 0 Z " fill="#D8DEE0" transform="translate(559,418)"/>
<path d="M0 0 C0.66 0.33 1.32 0.66 2 1 C0.25 3.5 0.25 3.5 -2 6 C-3.32 6 -4.64 6 -6 6 C-6 5.34 -6 4.68 -6 4 C-4.03852126 2.61061923 -2.03833424 1.2739589 0 0 Z " fill="#F1D464" transform="translate(435,584)"/>
<path d="M0 0 C0.66 0 1.32 0 2 0 C2 0.99 2 1.98 2 3 C2.66 3 3.32 3 4 3 C4.625 4.8125 4.625 4.8125 5 7 C4.01 8.485 4.01 8.485 3 10 C2.01 6.7 1.02 3.4 0 0 Z " fill="#EDEFED" transform="translate(718,548)"/>
<path d="M0 0 C0.66 0 1.32 0 2 0 C2 0.66 2 1.32 2 2 C2.66 2 3.32 2 4 2 C4.33 3.98 4.66 5.96 5 8 C4.01 8.495 4.01 8.495 3 9 C2.01 6.03 1.02 3.06 0 0 Z " fill="#EFEFEE" transform="translate(861,524)"/>
<path d="M0 0 C-1.65 0.33 -3.3 0.66 -5 1 C-5.33 3.64 -5.66 6.28 -6 9 C-6.33 9 -6.66 9 -7 9 C-7.33 6.36 -7.66 3.72 -8 1 C-3.375 -1.125 -3.375 -1.125 0 0 Z " fill="#000C23" transform="translate(975,469)"/>
<path d="M0 0 C0 1.98 0 3.96 0 6 C-0.33 5.01 -0.66 4.02 -1 3 C-3.31 2.67 -5.62 2.34 -8 2 C-4.91190305 0.23537317 -3.76687864 0 0 0 Z " fill="#172640" transform="translate(487,430)"/>
<path d="M0 0 C1.15957207 3.47871621 0.77456651 4.34219645 -0.4375 7.6875 C-0.86869141 8.89986328 -0.86869141 8.89986328 -1.30859375 10.13671875 C-1.53675781 10.75160156 -1.76492188 11.36648438 -2 12 C-2.66 11.34 -3.32 10.68 -4 10 C-4 9.01 -4 8.02 -4 7 C-3.34 7 -2.68 7 -2 7 C-1.34 4.69 -0.68 2.38 0 0 Z " fill="#0B111D" transform="translate(660,537)"/>
<path d="M0 0 C0.33 0 0.66 0 1 0 C1.33 2.97 1.66 5.94 2 9 C0.68 9.33 -0.64 9.66 -2 10 C-1.34 6.7 -0.68 3.4 0 0 Z " fill="#EEBB5D" transform="translate(391,516)"/>
<path d="M0 0 C0.33 0 0.66 0 1 0 C1.22174933 1.45635371 1.42698698 2.91522956 1.625 4.375 C1.74101562 5.18710937 1.85703125 5.99921875 1.9765625 6.8359375 C1.98429687 7.55007813 1.99203125 8.26421875 2 9 C1.34 9.66 0.68 10.32 0 11 C-1.26026798 8.47946405 -0.91874445 7.1457902 -0.5625 4.375 C-0.46066406 3.55773437 -0.35882813 2.74046875 -0.25390625 1.8984375 C-0.17011719 1.27195312 -0.08632813 0.64546875 0 0 Z " fill="#061237" transform="translate(299,491)"/>
<path d="M0 0 C3.81684226 1.55500981 6.19195732 4.03595495 9 7 C8.67 7.66 8.34 8.32 8 9 C6.66368764 7.6905332 5.33102075 6.37734515 4 5.0625 C3.2575 4.33160156 2.515 3.60070312 1.75 2.84765625 C0 1 0 1 0 0 Z " fill="#131B2A" transform="translate(806,470)"/>
<path d="M0 0 C-1.65 0.33 -3.3 0.66 -5 1 C-5 1.66 -5 2.32 -5 3 C-7.97 2.505 -7.97 2.505 -11 2 C-7.00042393 -0.06874624 -4.43559483 -1.37656391 0 0 Z " fill="#EDEEEF" transform="translate(988,467)"/>
<path d="M0 0 C0.66 0.66 1.32 1.32 2 2 C1.9765625 4.6015625 1.9765625 4.6015625 1.625 7.625 C1.51414062 8.62789063 1.40328125 9.63078125 1.2890625 10.6640625 C1.19367187 11.43492187 1.09828125 12.20578125 1 13 C0.67 13 0.34 13 0 13 C0 9.37 0 5.74 0 2 C-1.65 2 -3.3 2 -5 2 C-5 1.67 -5 1.34 -5 1 C-2.625 0.375 -2.625 0.375 0 0 Z " fill="#2E3346" transform="translate(511,403)"/>
<path d="M0 0 C0.66 0 1.32 0 2 0 C1.34 2.31 0.68 4.62 0 7 C-0.99 7 -1.98 7 -3 7 C-2.67 5.35 -2.34 3.7 -2 2 C-1.34 2 -0.68 2 0 2 C0 1.34 0 0.68 0 0 Z " fill="#E6E7E5" transform="translate(924,535)"/>
<path d="M0 0 C0.66 0.66 1.32 1.32 2 2 C1.625 4.125 1.625 4.125 1 6 C-0.32 6.33 -1.64 6.66 -3 7 C-2.01 4.69 -1.02 2.38 0 0 Z " fill="#141E3C" transform="translate(404,505)"/>
<path d="M0 0 C1.11375 0.1546875 1.11375 0.1546875 2.25 0.3125 C-0.27956528 3.4041909 -2.97454612 4.22181332 -6.75 5.3125 C-3.42692308 0.38942308 -3.42692308 0.38942308 0 0 Z " fill="#0E1827" transform="translate(1031.75,459.6875)"/>
</svg>
